<svg width="145" height="27" viewBox="0 0 145 27" fill="none" xmlns="http://www.w3.org/2000/svg"  xmlns:xlink="http://www.w3.org/1999/xlink">
<g clip-path="url(#clip0_1805_14388)">
<path d="M111.642 11.6501L105.212 0.370117H100.602L109.322 15.7301V25.8301H113.962V15.7301L122.692 0.370117H118.052L111.642 11.6501Z" fill="#100F20"/>
<path d="M15.06 25.8301H19.35V0.370117H15.06V10.9601H4.29V0.370117H0V25.8301H4.29V15.2501H15.06V25.8301Z" fill="#100F20"/>
<path d="M52.6087 0.370117V4.67012H64.0088L52.2188 25.8301H70.8688V21.5401H59.5187L71.2787 0.370117H52.6087Z" fill="#100F20"/>
<path d="M38.65 0.379883H38.56H34.44H34.34L24.75 25.8399H28.88L31 20.2499L31.27 19.5399H41.74L42 20.2499L44.11 25.8299H48.24L38.65 0.379883ZM32.9 15.2499L36.5 5.78988L40.1 15.2499H32.9Z" fill="#100F20"/>
<path d="M77.0172 0.370117V4.67012H88.4072L76.6172 25.8301H95.2672V21.5401H83.9272L95.6772 0.370117H77.0172Z" fill="#100F20"/>
<path d="M138.912 11.86L135.312 10.4C133.192 9.6 131.192 8.84 131.192 6.83C131.192 4.97 132.812 3.81 135.422 3.81C137.512 3.81 139.302 4.51 141.072 6L141.212 6.12L143.632 3.34L143.502 3.2C141.402 1.17 138.452 0 135.422 0C130.402 0 126.612 3.04 126.612 7.06C126.612 10.06 128.452 12.32 132.082 13.77L135.712 15.26L135.822 15.31C138.132 16.27 139.792 16.97 139.792 19.07C139.792 21.12 137.972 22.39 135.032 22.39C132.642 22.39 130.082 21.31 128.172 19.5L128.032 19.37L125.352 22.36L125.492 22.49C127.932 24.84 131.382 26.2 134.952 26.2C140.502 26.2 144.372 23.14 144.372 18.76C144.382 14.6 141.462 12.88 138.912 11.86Z" fill="#100F20"/>
</g>
<defs>
<clipPath id="clip0_1805_14388">
<rect width="144.38" height="26.21" fill="white"/>
</clipPath>
</defs>
</svg>
