<svg width="10" height="14" viewBox="0 0 10 14" fill="none" xmlns="http://www.w3.org/2000/svg">
<path d="M6.37072 6.04035C5.2162 6.04035 4.39055 6.45457 3.80446 6.817V5.22395L3.84667 3.29435C3.84765 3.28418 3.84863 3.27308 3.84863 3.26291C3.88987 2.54821 3.29101 1.93429 2.53114 1.91025C2.28276 1.90193 2.03732 1.94169 1.77029 2.04431C1.52878 2.1377 1.2912 2.27731 1.16848 2.48811C0.859237 3.01512 0.154348 2.89216 0.0532286 3.07985C-0.0469089 3.26754 -0.101886 4.22725 0.812113 4.15421C1.72611 4.08117 2.05794 3.89348 2.09917 4.25776V12.9479H1.48755C1.30004 12.9479 1.14885 13.0903 1.14885 13.2669V13.6811C1.14885 13.8577 1.30004 14.0001 1.48755 14.0001H2.76381H3.13982H3.80347V13.3806C3.80347 13.3787 3.80446 13.3769 3.80446 13.3741V9.17098C3.80446 8.6338 4.11959 8.13268 4.63206 7.89968C5.0817 7.69628 5.60398 7.5428 6.15081 7.5428C7.47125 7.5428 8.29493 8.33701 8.29493 9.78675V12.947H7.68429C7.49678 12.947 7.34559 13.0894 7.34559 13.266V13.6802C7.34559 13.8568 7.49776 13.9991 7.68429 13.9991H8.95957H9.33558H10.0002V13.3732V12.946V9.87181C10.0002 6.59325 7.58023 6.04035 6.37072 6.04035Z" fill="#FAF9F7"/>
<path d="M3.66511 0.865408H3.19682V0.382776C3.19682 0.171047 3.0152 0 2.79038 0H2.16011C1.93529 0 1.75367 0.171047 1.75367 0.382776V0.865408H1.28439C1.15971 0.865408 1.05859 0.960639 1.05859 1.07806V1.14278C1.05859 1.2602 1.15971 1.35636 1.28439 1.35636H3.66511C3.78979 1.35636 3.89189 1.26113 3.89189 1.14278V1.07806C3.89189 0.960639 3.78979 0.865408 3.66511 0.865408Z" fill="#FAF9F7"/>
</svg>
