<svg width="24" height="26" viewBox="0 0 24 26" fill="none" xmlns="http://www.w3.org/2000/svg">
<path d="M11.9982 0.222656C5.37356 0.222656 0 5.21623 0 11.3749C0 15.0134 1.87483 18.2433 4.77491 20.2794V25.1726C4.77491 25.2407 4.81434 25.3053 4.87528 25.3375C4.90037 25.3519 4.92905 25.359 4.96131 25.359C5.00075 25.359 5.03659 25.3483 5.06886 25.3232L9.36341 22.2546C10.213 22.4303 11.0948 22.5271 12.0018 22.5271C18.63 22.5271 24 17.5335 24 11.3749C23.9964 5.21623 18.6264 0.222656 11.9982 0.222656Z" fill="#010100"/>
<path d="M19.4901 10.084C19.0814 9.64309 18.4792 9.41725 17.7013 9.41725C17.2675 9.41725 16.8732 9.51404 16.5255 9.70044C16.2674 9.84025 16.0415 10.0087 15.8515 10.1987V6.58887H14.1523V16.153H15.8372V12.579C15.8372 12.2815 15.8766 12.0126 15.9591 11.7796C16.0379 11.5466 16.1491 11.3494 16.2817 11.1917C16.4143 11.034 16.5756 10.9121 16.7513 10.8296C16.9305 10.7472 17.1205 10.7042 17.3213 10.7042C17.669 10.7042 17.9414 10.7974 18.1278 10.9838C18.3143 11.1702 18.411 11.5179 18.411 12.0126V16.1494H20.0959V12.0843C20.0995 11.1953 19.8951 10.5214 19.4901 10.084Z" fill="white"/>
<path d="M8.41687 8.57885C9.59985 8.57885 10.6107 9.34599 11.0122 10.425H12.8225C12.3637 8.33508 10.5677 6.7793 8.41687 6.7793C5.92188 6.7793 3.89648 8.87997 3.89648 11.4682C3.89648 14.06 5.91829 16.157 8.41687 16.157C10.5677 16.157 12.3673 14.5977 12.8225 12.5078H11.0122C10.6107 13.5868 9.59985 14.3539 8.41687 14.3539C6.87901 14.3539 5.6351 13.0598 5.6351 11.4646C5.6351 9.86936 6.87901 8.57885 8.41687 8.57885Z" fill="white"/>
</svg>
