<svg width="24" height="24" viewBox="0 0 24 24" fill="none" xmlns="http://www.w3.org/2000/svg">
<path fill-rule="evenodd" clip-rule="evenodd" d="M20.5952 4.46275C21.5418 4.71738 22.2873 5.46763 22.5403 6.42038C23 8.14713 23 11.75 23 11.75C23 11.75 23 15.3528 22.5403 17.0796C22.2873 18.0324 21.5418 18.7826 20.5952 19.0374C18.8797 19.5 12 19.5 12 19.5C12 19.5 5.12038 19.5 3.40475 19.0374C2.45813 18.7826 1.71263 18.0324 1.45963 17.0796C1 15.3528 1 11.75 1 11.75C1 11.75 1 8.14713 1.45963 6.42038C1.71263 5.46763 2.45813 4.71738 3.40475 4.46275C5.12038 4 12 4 12 4C12 4 18.8797 4 20.5952 4.46275ZM9.74998 8.4789V15.0212L15.5 11.7502L9.74998 8.4789Z" fill="white"/>
</svg>
