<svg width="22" height="22" viewBox="0 0 22 22" fill="none" xmlns="http://www.w3.org/2000/svg">
<path fill-rule="evenodd" clip-rule="evenodd" d="M11 0C8.01259 0 7.63794 0.0126627 6.46472 0.0661956C5.29385 0.119597 4.49427 0.305565 3.79454 0.577508C3.07124 0.858577 2.45775 1.2347 1.84623 1.84623C1.23466 2.45779 0.858577 3.07124 0.577465 3.79454C0.305521 4.49427 0.119597 5.29385 0.0661519 6.46472C0.0126191 7.63799 0 8.01254 0 11C0 13.9874 0.0126191 14.362 0.0661519 15.5353C0.119597 16.7061 0.305521 17.5058 0.577465 18.2054C0.858577 18.9287 1.23466 19.5422 1.84623 20.1538C2.45775 20.7653 3.07124 21.1414 3.79454 21.4226C4.49427 21.6945 5.29385 21.8804 6.46472 21.9339C7.63794 21.9874 8.01259 22 11 22C13.9874 22 14.362 21.9874 15.5353 21.9339C16.7061 21.8804 17.5057 21.6945 18.2054 21.4226C18.9288 21.1414 19.5422 20.7653 20.1538 20.1538C20.7653 19.5422 21.1414 18.9288 21.4225 18.2054C21.6945 17.5058 21.8804 16.7061 21.9338 15.5353C21.9874 14.362 22 13.9874 22 11C22 8.01259 21.9874 7.63799 21.9338 6.46472C21.8804 5.29385 21.6945 4.49427 21.4225 3.79454C21.1414 3.07124 20.7653 2.45779 20.1538 1.84623C19.5422 1.2347 18.9288 0.858577 18.2054 0.577508C17.5057 0.305565 16.7061 0.119597 15.5353 0.0661956C14.362 0.0126627 13.9874 0 11 0ZM11 1.98198C13.9371 1.98198 14.285 1.99316 15.4449 2.04608C16.5174 2.09503 17.0998 2.27423 17.4875 2.42487C18.0009 2.62442 18.3674 2.86278 18.7523 3.24769C19.1372 3.63263 19.3756 3.99907 19.5752 4.51252C19.7257 4.90013 19.905 5.48257 19.9539 6.55506C20.0068 7.71497 20.018 8.06289 20.018 11C20.018 13.9371 20.0068 14.2851 19.9539 15.4449C19.905 16.5175 19.7257 17.0999 19.5752 17.4875C19.3756 18.0009 19.1372 18.3674 18.7523 18.7523C18.3674 19.1372 18.0009 19.3756 17.4875 19.5752C17.0998 19.7257 16.5174 19.905 15.4449 19.9539C14.2852 20.0068 13.9374 20.018 11 20.018C8.06263 20.018 7.71479 20.0068 6.55506 19.9539C5.48257 19.905 4.90009 19.7257 4.51248 19.5752C3.99907 19.3756 3.63259 19.1372 3.24769 18.7523C2.86278 18.3674 2.62437 18.0009 2.42483 17.4875C2.27423 17.0999 2.09503 16.5175 2.04608 15.445C1.99316 14.2851 1.98198 13.9371 1.98198 11C1.98198 8.06289 1.99316 7.71497 2.04608 6.55506C2.09503 5.48257 2.27423 4.90013 2.42483 4.51252C2.62437 3.99907 2.86278 3.63263 3.24769 3.24773C3.63259 2.86278 3.99907 2.62442 4.51248 2.42487C4.90009 2.27423 5.48257 2.09503 6.55502 2.04608C7.71497 1.99316 8.06285 1.98198 11 1.98198ZM11 14.6667C8.97495 14.6667 7.3333 13.025 7.3333 11C7.3333 8.97495 8.97495 7.33334 11 7.33334C13.025 7.33334 14.6667 8.97495 14.6667 11C14.6667 13.025 13.025 14.6667 11 14.6667ZM11 5.35136C7.88033 5.35136 5.35132 7.88033 5.35132 11C5.35132 14.1197 7.88033 16.6487 11 16.6487C14.1197 16.6487 16.6486 14.1197 16.6486 11C16.6486 7.88033 14.1197 5.35136 11 5.35136ZM16.8718 6.44816C17.6009 6.44816 18.1918 5.85721 18.1918 5.12818C18.1918 4.39916 17.6009 3.8082 16.8718 3.8082C16.1428 3.8082 15.5518 4.39916 15.5518 5.12818C15.5518 5.85721 16.1428 6.44816 16.8718 6.44816Z" fill="white"/>
</svg>
