<svg width="24" height="24" viewBox="0 0 24 24" fill="none" xmlns="http://www.w3.org/2000/svg">
<path fill-rule="evenodd" clip-rule="evenodd" d="M18.8219 14.1292H17.3602V10.832C17.3602 10.0732 16.9177 9.66482 16.2384 9.66482C15.4793 9.66482 14.9922 10.1291 14.9922 11.0697V14.1292H13.5302V6.0645H14.9922V9.09795C15.3427 8.56577 15.9098 8.30536 16.68 8.30536C17.3037 8.30536 17.8134 8.50896 18.2093 8.92813C18.6174 9.3476 18.8219 9.91387 18.8219 10.6506V14.1292ZM8.31274 12.7527C9.39116 12.7527 10.3132 12.1075 10.5913 11.1104H12.1854C11.7959 13.0295 10.3022 14.287 8.31274 14.287C6.00073 14.287 4.16769 12.5631 4.16769 10.1629C4.16769 7.76331 6.00073 6.03879 8.31274 6.03879C10.3219 6.03879 11.8264 7.32201 12.1971 9.27465H10.6068C10.3652 8.21327 9.4109 7.55163 8.31274 7.55163C6.75805 7.55163 5.72388 8.66054 5.72388 10.1629C5.72388 11.6665 6.89947 12.7527 8.31274 12.7527ZM12.0004 0C5.92419 0 1 4.55525 1 10.1746C1 14.3247 2.73827 16.3061 5.11904 18.1122L5.13011 18.1176V22.9876C5.13011 23.2179 5.39231 23.3491 5.57678 23.2119L9.74785 20.1139L9.83784 20.1524C10.5369 20.2813 11.2598 20.3498 12.0004 20.3498C18.0756 20.3498 23.0001 15.7939 23.0001 10.1746C23.0001 4.55525 18.0756 0 12.0004 0Z" fill="white"/>
</svg>
