<svg width="39" height="7" viewBox="0 0 39 7" fill="none" xmlns="http://www.w3.org/2000/svg">
<path d="M30.4984 3.10134L28.4608 0H27L29.7632 4.22309V7H31.2336V4.22309L34 0H32.5297L30.4984 3.10134Z" fill="#FAF9F7"/>
<path d="M4.66977 7H6V0H4.66977V2.91163H1.33023V0H0V7H1.33023V4.09112H4.66977V7Z" fill="#FAF9F7"/>
<path d="M14.1023 0V1.18225H17.0929L14 7H18.8924V5.8205H15.915L19 0H14.1023Z" fill="#FAF9F7"/>
<path d="M10.5504 0H10.5275H9.4751H9.44955L7 7H8.05492L8.59642 5.46308L8.66539 5.26787H11.3397L11.4061 5.46308L11.9451 6.99725H13L10.5504 0ZM9.08174 4.08837L10.0013 1.48743L10.9208 4.08837H9.08174Z" fill="#FAF9F7"/>
<path d="M21.1049 0V1.18225H24.0929L21 7H25.8924V5.8205H22.9176L26 0H21.1049Z" fill="#FAF9F7"/>
<path d="M37.8517 3.1687L37.0946 2.77863C36.6488 2.56489 36.2282 2.36183 36.2282 1.82481C36.2282 1.32786 36.5689 1.01794 37.1178 1.01794C37.5573 1.01794 37.9338 1.20496 38.306 1.60305L38.3354 1.63511L38.8444 0.892366L38.817 0.854962C38.3754 0.312595 37.755 0 37.1178 0C36.062 0 35.265 0.812214 35.265 1.88626C35.265 2.68779 35.6519 3.2916 36.4154 3.67901L37.1788 4.0771L37.2019 4.09046C37.6877 4.34695 38.0368 4.53397 38.0368 5.09504C38.0368 5.64275 37.654 5.98206 37.0357 5.98206C36.5331 5.98206 35.9947 5.69351 35.5931 5.20992L35.5636 5.17519L35 5.97405L35.0294 6.00878C35.5426 6.63664 36.2681 7 37.0189 7C38.1861 7 39 6.18244 39 5.01221C39.0021 3.90076 38.388 3.44122 37.8517 3.1687Z" fill="#FAF9F7"/>
</svg>
